<svg version="1.1" id="Layer_1" xmlns="http://www.w3.org/2000/svg" xmlns:xlink="http://www.w3.org/1999/xlink" x="0px" y="0px"
	 width="100%" height="100%" viewBox="0 0 1092 394" enable-background="new 0 0 1092 394" xml:space="preserve">
<path fill="#000000" opacity="1.000000" stroke="none" 
	d="
M48.152088,326.231201 
	C58.074547,299.378418 67.843857,272.883240 77.801125,245.878296 
	C72.239174,244.590515 67.272491,245.337173 62.374962,245.178543 
	C57.882786,245.033035 53.373558,245.238266 48.893570,244.950607 
	C45.627235,244.740860 42.861553,243.119919 43.027775,239.432114 
	C43.196953,235.678802 46.086514,234.644272 49.421970,234.643188 
	C64.911728,234.638168 80.402763,234.741104 95.890297,234.553680 
	C99.596695,234.508835 100.688187,236.551193 101.748611,239.380219 
	C110.861458,263.691833 120.047714,287.975952 129.191238,312.276123 
	C134.759216,327.073792 140.388550,341.849762 145.768311,356.715820 
	C147.090378,360.369141 148.852036,362.392670 152.954941,361.740417 
	C154.241348,361.535889 155.643600,361.654053 156.928268,361.927673 
	C159.777679,362.534576 161.980759,364.078949 161.867950,367.280090 
	C161.755142,370.481537 159.488434,372.154297 156.564957,372.182617 
	C143.243591,372.311646 129.919495,372.303955 116.598083,372.172943 
	C113.619804,372.143616 111.483162,370.387360 111.421913,367.181671 
	C111.353729,363.612885 113.918198,362.057556 116.930244,361.920105 
	C122.876991,361.648773 128.844833,361.840118 134.867065,361.840118 
	C135.579147,358.344971 134.013947,356.017700 133.159119,353.614624 
	C130.369415,345.772491 127.317131,338.023743 124.527367,330.181610 
	C123.549820,327.433716 122.027847,326.293213 119.028648,326.311157 
	C100.541504,326.421875 82.053375,326.385040 63.565632,326.358368 
	C61.426357,326.355286 59.559315,326.630524 58.696995,328.931488 
	C54.738773,339.493317 50.780479,350.055115 46.676369,361.006104 
	C51.769794,362.266205 56.389454,361.434052 60.936001,361.698151 
	C62.926212,361.813812 64.969643,361.668610 66.895355,362.079895 
	C69.544151,362.645599 71.416641,364.192169 71.273880,367.277649 
	C71.133186,370.318451 69.224693,371.867401 66.514755,372.131470 
	C63.212479,372.453247 59.863548,372.332458 56.534683,372.338226 
	C47.041000,372.354736 37.547260,372.334137 28.053541,372.337097 
	C24.372194,372.338226 21.069620,371.326141 20.916847,367.104797 
	C20.755928,362.658447 24.398523,361.454376 27.838303,361.834076 
	C33.608387,362.471069 36.013115,359.925385 37.689720,354.709167 
	C40.742226,345.212311 44.522392,335.949371 48.152088,326.231201 
M94.499924,315.688873 
	C102.367027,315.688873 110.234131,315.688873 118.273842,315.688873 
	C118.061745,314.151581 118.082329,313.639069 117.916832,313.196106 
	C109.829086,291.548889 101.729317,269.906158 93.612946,248.269653 
	C93.153328,247.044434 92.754250,245.554535 91.129570,245.487183 
	C88.901070,245.394775 88.643242,247.353043 88.085846,248.860077 
	C80.243332,270.063477 72.417030,291.272919 64.606003,312.487946 
	C64.275841,313.384674 63.780460,314.355011 65.006996,315.688416 
	C74.251060,315.688416 83.875496,315.688416 94.499924,315.688873 
z"/>
<path fill="#000000" opacity="1.000000" stroke="none" 
	d="
M480.633545,352.876678 
	C480.636017,315.907013 480.638916,279.418488 480.639923,242.929947 
	C480.640137,235.373474 480.636902,235.378372 472.882416,235.338913 
	C470.716949,235.327911 468.535034,235.436386 466.390320,235.209564 
	C463.310272,234.883820 460.847687,233.522385 460.815735,229.997971 
	C460.785889,226.703506 463.165680,225.030319 465.963196,224.921539 
	C473.447327,224.630508 480.951691,224.651291 488.442017,224.817459 
	C492.008545,224.896591 491.239807,227.968155 491.247925,230.137436 
	C491.306580,245.798950 491.265656,261.460815 491.302673,277.122467 
	C491.306854,278.898865 490.855865,280.751251 492.004669,282.907562 
	C494.496460,280.873138 496.863922,278.898102 499.275360,276.978333 
	C512.459534,266.482178 527.244873,264.200439 543.070496,269.147369 
	C557.765137,273.740784 566.854614,287.596527 566.941895,304.763458 
	C567.027466,321.590973 567.130798,338.421875 566.866211,355.245605 
	C566.787781,360.229645 568.205383,362.435883 573.338806,361.732941 
	C574.969360,361.509644 576.681946,361.611145 578.325684,361.815704 
	C581.542603,362.216095 584.323547,363.401062 584.163574,367.285278 
	C584.017944,370.820068 581.448364,371.948547 578.369202,372.273651 
	C577.708557,372.343384 577.037903,372.333679 576.371826,372.333618 
	C566.208374,372.332642 556.044739,372.354004 545.881653,372.293152 
	C544.411438,372.284363 542.874695,372.077820 541.490906,371.605194 
	C539.442627,370.905579 538.149658,369.310608 538.148254,367.090729 
	C538.146912,364.897400 539.376526,363.400818 541.395264,362.484955 
	C543.136047,361.695129 544.955261,361.727722 546.785950,361.705536 
	C556.581787,361.586731 555.709534,363.010437 555.746216,352.452087 
	C555.800598,336.790497 555.774048,321.128601 555.769531,305.466858 
	C555.763977,286.269836 542.141846,274.805054 523.009766,277.608948 
	C513.749023,278.966095 507.083374,284.277435 500.316742,290.224731 
	C493.346710,296.350861 490.593384,303.099487 491.083069,312.429840 
	C491.850494,327.051514 491.411011,341.745087 491.200836,356.404144 
	C491.140533,360.608307 492.597931,362.173035 496.681702,361.727722 
	C498.491638,361.530365 500.346191,361.651642 502.175201,361.739410 
	C505.653534,361.906372 508.775818,363.119263 508.763092,367.053040 
	C508.750458,370.966187 505.685730,372.280334 502.166565,372.309265 
	C494.669403,372.370880 487.171509,372.344971 479.673889,372.343384 
	C476.175079,372.342651 472.673676,372.393280 469.178223,372.276855 
	C465.906647,372.167908 463.051697,371.073700 462.897705,367.277039 
	C462.729095,363.119843 465.779755,362.079742 469.199677,361.757111 
	C470.191589,361.663574 471.197540,361.714844 472.197113,361.707977 
	C480.592926,361.650391 480.592926,361.650970 480.633545,352.876678 
z"/>
<path fill="#000000" opacity="1.000000" stroke="none" 
	d="
M904.325439,346.538513 
	C894.213623,325.602570 894.075195,305.461700 909.049622,287.265839 
	C924.719116,268.225250 945.581665,262.827271 968.935913,268.929932 
	C991.278687,274.768341 1004.453735,290.166168 1007.878174,312.836182 
	C1009.861145,325.963409 1010.675537,324.343842 998.211914,324.362274 
	C970.733948,324.402924 943.255798,324.363098 915.777771,324.396820 
	C913.656433,324.399414 911.458496,323.966522 908.825623,325.239868 
	C910.467834,337.172546 915.711243,347.237183 925.175293,354.792755 
	C940.432495,366.973267 957.745361,367.715363 975.838745,363.016144 
	C984.117981,360.865906 991.957397,357.729492 998.936157,352.656860 
	C1001.851807,350.537506 1005.013550,349.231232 1007.737549,352.698059 
	C1010.531250,356.253693 1008.178467,359.031860 1005.531311,361.237640 
	C997.393127,368.018890 987.592163,371.357971 977.535217,373.794617 
	C958.208923,378.477112 939.524353,377.519257 922.425110,366.064819 
	C914.977905,361.076050 909.088135,354.563843 904.325439,346.538513 
M974.115234,282.374268 
	C972.120972,281.546509 970.164612,280.608734 968.126770,279.907745 
	C943.757751,271.525299 917.024170,284.826630 910.065613,308.609070 
	C908.974976,312.336456 909.532043,313.772430 913.666321,313.757599 
	C939.775024,313.664032 965.884644,313.646484 991.993042,313.778229 
	C996.691589,313.801910 997.296143,312.058899 996.019409,308.011597 
	C992.418213,296.596100 985.085876,288.432800 974.115234,282.374268 
z"/>
<path fill="#000000" opacity="1.000000" stroke="none" 
	d="
M838.636230,329.550354 
	C832.995605,342.586395 827.442505,355.247314 822.099854,367.996429 
	C820.745056,371.229279 818.871948,372.525391 815.312012,372.401062 
	C799.538818,371.850159 803.888489,375.027008 797.477417,360.597321 
	C786.386658,335.634796 775.448914,310.603210 764.648499,285.513855 
	C762.925903,281.512421 760.604065,279.771545 756.329529,280.292786 
	C754.528503,280.512390 752.654053,280.404785 750.841858,280.195801 
	C747.844604,279.850098 745.890076,278.247803 745.795288,275.041504 
	C745.703369,271.932739 747.839417,270.655426 750.422424,270.018250 
	C751.694214,269.704559 753.065979,269.720703 754.392822,269.717896 
	C765.391174,269.694611 776.389465,269.692657 787.387817,269.711731 
	C788.714722,269.714020 790.080383,269.710419 791.360107,270.004944 
	C794.205322,270.659729 796.358032,272.216309 796.131531,275.459961 
	C795.925110,278.416992 793.769226,279.927643 791.093201,280.123505 
	C786.947449,280.426941 782.769592,280.278503 778.606140,280.362122 
	C777.464661,280.385010 776.326111,280.552002 775.203674,280.651306 
	C774.346497,283.011780 775.724060,284.709442 776.481445,286.448456 
	C786.788696,310.116364 797.146057,333.762451 807.538269,357.393188 
	C808.304810,359.136292 808.720398,361.506989 811.296265,361.516754 
	C813.879089,361.526520 814.267151,359.210999 815.036743,357.422424 
	C825.109680,334.013397 835.185486,310.605560 845.204285,287.173340 
	C846.026062,285.251343 847.316711,283.392609 846.952637,280.821808 
	C842.351013,279.844879 837.707581,280.511658 833.114197,280.358307 
	C829.276917,280.230194 825.731812,279.479797 825.877869,274.794586 
	C826.015564,270.378357 829.711243,269.772278 833.160156,269.745911 
	C845.157593,269.654083 857.156494,269.667084 869.154114,269.740570 
	C872.703247,269.762299 876.161072,270.601990 876.179871,275.038940 
	C876.198608,279.471069 872.781555,280.806854 869.241821,280.222229 
	C861.665222,278.970795 858.455017,282.582520 855.883728,289.242035 
	C850.668579,302.748901 844.548706,315.906403 838.636230,329.550354 
z"/>
<path fill="#000000" opacity="1.000000" stroke="none" 
	d="
M410.247009,359.280273 
	C416.320435,356.325775 421.505676,352.764618 426.155212,348.378906 
	C428.733521,345.946899 431.780029,344.107086 434.861053,347.380280 
	C437.866028,350.572693 436.045868,353.752533 433.591949,356.185699 
	C423.330688,366.360321 410.679626,372.136108 396.703217,374.860687 
	C379.611359,378.192627 363.057526,376.814148 348.485748,366.236908 
	C330.870361,353.450409 324.492188,335.490845 327.157562,314.491638 
	C332.629944,271.377594 379.873657,254.620255 414.924194,275.882080 
	C416.170685,276.638184 417.407318,277.410553 418.696930,278.205139 
	C419.087250,277.739777 419.447784,277.510712 419.474915,277.247314 
	C419.855316,273.554504 420.677521,269.781738 425.267761,269.983734 
	C430.233673,270.202271 430.427216,274.234589 430.392059,278.115784 
	C430.328705,285.112518 430.366699,292.110107 430.358398,299.107361 
	C430.354309,302.548706 429.516785,305.715271 425.550629,306.117157 
	C421.505707,306.527069 420.252625,303.557373 419.665680,300.124603 
	C417.940521,290.034760 410.618835,284.784576 402.120270,281.250244 
	C389.850128,276.147461 377.099091,275.850037 364.534912,280.266113 
	C350.177734,285.312347 342.537872,296.424316 338.949890,310.599792 
	C332.738525,335.139771 346.146027,358.709473 369.476440,364.289429 
	C383.487213,367.640381 396.891205,364.906982 410.247009,359.280273 
z"/>
<path fill="#000000" opacity="1.000000" stroke="none" 
	d="
M191.920410,270.458221 
	C201.770203,269.001465 211.262543,269.956757 220.733948,269.772980 
	C223.755676,269.714355 224.150299,271.856537 224.154358,274.196960 
	C224.164764,280.180908 224.157822,286.164856 224.157822,292.484711 
	C226.728394,292.211334 227.778610,290.382141 229.206207,289.199493 
	C238.680298,281.350861 247.644852,272.761414 259.662384,268.678986 
	C271.973633,264.496765 284.999664,268.641327 292.475983,279.082031 
	C294.491302,281.896393 294.942047,284.648926 292.225861,287.104889 
	C289.439514,289.624298 286.485138,288.938354 284.362549,286.250397 
	C274.557983,273.834076 266.467712,275.839966 253.781464,283.680328 
	C243.723419,289.896423 234.971176,297.970459 226.432587,306.184784 
	C224.714035,307.838074 224.148773,309.702118 224.154022,311.987793 
	C224.188477,326.980804 224.250427,341.974823 224.101700,356.966492 
	C224.063919,360.774597 225.615738,361.799255 229.172409,361.753723 
	C240.998413,361.602325 252.827621,361.676636 264.655396,361.720184 
	C266.470703,361.726868 268.341736,361.803589 270.086029,362.246002 
	C272.543976,362.869446 274.245331,364.475739 274.105896,367.238953 
	C273.969208,369.948212 272.180603,371.438873 269.728638,372.018341 
	C268.293945,372.357330 266.752502,372.322296 265.259033,372.323120 
	C240.770187,372.336823 216.281357,372.329956 191.792511,372.324799 
	C190.793213,372.324585 189.787369,372.363007 188.795792,372.267212 
	C185.496445,371.948578 182.815811,370.685669 182.864517,366.890961 
	C182.910187,363.332581 185.601334,361.972717 188.607880,361.857117 
	C194.929291,361.614105 201.273682,361.518250 207.591171,361.781250 
	C211.824188,361.957489 213.022720,360.289185 213.001144,356.259827 
	C212.875366,332.771240 212.881577,309.281219 213.014023,285.792664 
	C213.036560,281.797974 211.924454,279.975159 207.642090,280.270020 
	C203.332230,280.566772 198.983597,280.357056 194.653488,280.281250 
	C192.179214,280.237915 189.907318,279.431519 189.035767,276.915527 
	C188.122894,274.280334 188.791504,271.974243 191.920410,270.458221 
z"/>
<path fill="#000000" opacity="1.000000" stroke="none" 
	d="
M662.934265,269.703491 
	C672.979309,269.702515 672.982239,269.702515 672.985413,279.162598 
	C672.994080,304.485962 672.985107,329.809387 673.017029,355.132721 
	C673.025269,361.687073 673.082520,361.698273 679.746521,361.703644 
	C689.575989,361.711609 699.405518,361.698090 709.234985,361.702454 
	C711.064758,361.703278 712.883057,361.686768 714.630554,362.456818 
	C716.666748,363.354218 717.879822,364.862366 717.924622,367.040375 
	C717.975403,369.507507 716.516357,371.158997 714.243408,371.799255 
	C712.674316,372.241272 710.961975,372.312469 709.313416,372.313995 
	C681.324402,372.339996 653.335388,372.329437 625.346375,372.324646 
	C624.513550,372.324524 623.677002,372.344971 622.848572,372.277832 
	C619.474426,372.004456 616.929382,370.513489 616.886230,366.862152 
	C616.843750,363.263367 619.677368,362.253876 622.640869,361.830536 
	C624.113708,361.620148 625.633423,361.714172 627.131958,361.712708 
	C637.128052,361.703033 647.125488,361.608551 657.119385,361.756012 
	C660.529236,361.806305 661.846375,360.670227 661.831665,357.160522 
	C661.730042,333.003784 661.742126,308.846344 661.811523,284.689423 
	C661.820740,281.485565 660.658875,280.229828 657.409912,280.295166 
	C650.082520,280.442566 642.749756,280.364349 635.419739,280.308929 
	C633.771362,280.296478 632.057983,280.233521 630.493774,279.781281 
	C628.236145,279.128601 626.828308,277.520081 626.824219,275.011353 
	C626.820129,272.483887 628.240234,270.924103 630.535889,270.308411 
	C632.116272,269.884552 633.810181,269.733704 635.454773,269.724213 
	C644.450989,269.672363 653.447632,269.701935 662.934265,269.703491 
z"/>
<path fill="#000000" opacity="1.000000" stroke="none" 
	d="
M665.931702,246.116791 
	C663.961304,246.110382 662.462341,246.077621 660.964294,246.101166 
	C658.081360,246.146454 656.711548,244.840698 656.752136,241.868347 
	C656.833923,235.875198 656.829407,229.879517 656.755676,223.886169 
	C656.718750,220.883392 658.143005,219.743240 661.025574,219.743973 
	C674.789124,219.747467 672.076599,218.935181 672.322266,230.250031 
	C672.394531,233.578583 672.062134,236.936356 672.387756,240.234085 
	C672.850830,244.924652 670.883423,246.682953 665.931702,246.116791 
z"/>
</svg>