<svg version="1.1" id="Layer_1" xmlns="http://www.w3.org/2000/svg" xmlns:xlink="http://www.w3.org/1999/xlink" x="0px" y="0px"
	 width="100%" enable-background="new 0 0 1024 432" xml:space="preserve">
<path fill="#000000" opacity="1.000000" stroke="none" 
	d="
M231.191345,299.897217 
	C231.162415,315.481110 231.054749,330.616974 231.086517,345.752533 
	C231.107147,355.579102 231.228287,365.408203 231.511444,375.230225 
	C231.635681,379.539612 230.449356,381.445557 225.601807,381.427856 
	C168.776672,381.220337 111.950783,381.225830 55.125134,381.148987 
	C47.082817,381.138123 46.249126,380.134949 46.663769,371.604065 
	C46.771240,369.392944 46.991322,367.160797 44.078583,366.436859 
	C42.247002,365.981659 42.112000,364.398468 41.875061,362.900391 
	C41.196232,358.608490 40.656925,354.330627 41.638985,349.992706 
	C42.712006,345.253052 42.491943,340.439270 42.363537,335.618195 
	C42.035767,323.312469 46.593239,311.380066 45.258415,298.990448 
	C44.571140,292.611298 43.454460,286.241150 42.433086,279.960236 
	C39.782249,263.658966 41.156780,247.356293 40.717709,231.072861 
	C40.331623,216.754364 40.909775,202.412521 40.767654,188.083893 
	C40.674156,178.657196 42.107086,169.489029 44.458603,160.438507 
	C45.317238,157.133774 45.535946,153.897232 45.055679,150.565292 
	C43.442886,139.376312 47.427757,128.525101 46.932869,117.341675 
	C46.448734,106.401260 46.935169,95.416092 47.064274,84.451378 
	C47.107063,80.817581 45.910561,77.881111 43.860954,74.779991 
	C40.390156,69.528549 40.454498,63.119656 40.048634,57.036095 
	C39.910038,54.958656 42.031738,54.673046 43.791828,54.722061 
	C75.105148,55.594055 106.433655,54.286804 137.751221,55.491508 
	C148.215195,55.894032 158.719818,55.100624 169.206039,55.092724 
	C189.671783,55.077309 210.141983,55.997631 230.600174,54.851940 
	C234.430908,54.637413 236.626236,56.226589 237.489502,59.834873 
	C238.602493,64.487000 239.621262,69.151131 237.843018,74.123840 
	C234.566360,72.383095 236.424515,68.364922 233.471176,66.645439 
	C230.654297,69.843056 230.124725,73.673248 229.911057,77.655762 
	C229.420334,86.802231 229.889496,95.941238 229.937378,105.084976 
	C230.174713,150.410507 230.214706,195.737091 230.307098,241.063354 
	C230.340347,257.377930 230.282394,273.692810 230.370758,290.006989 
	C230.387817,293.155701 230.892197,296.301727 231.191345,299.897217 
M172.453537,206.842270 
	C164.078339,209.404922 163.260056,213.042343 169.700684,219.107742 
	C170.305191,219.677063 170.890717,220.295547 171.583221,220.737289 
	C174.345062,222.498993 175.584213,224.865509 175.453568,228.240646 
	C175.373672,230.304565 175.505920,232.712296 177.652222,234.024521 
	C181.309341,236.260437 184.556503,239.091248 188.649796,240.721924 
	C192.148621,242.115799 194.209290,241.309799 195.008163,237.824860 
	C195.783142,234.444153 198.017807,232.593124 200.642578,230.639618 
	C204.965073,227.422592 210.641617,226.537537 214.102219,221.685394 
	C217.799454,216.501465 218.733002,213.313675 216.011063,208.495255 
	C212.676056,202.591568 209.618896,200.654770 203.388031,202.348007 
	C193.470398,205.043091 183.070099,203.757309 172.453537,206.842270 
M202.769302,288.547424 
	C203.891953,284.893799 205.286255,281.295715 206.048523,277.568390 
	C206.624481,274.752075 206.228714,271.761688 203.036301,270.371765 
	C200.273682,269.169006 192.315720,271.092651 190.911255,273.173859 
	C188.651825,276.522003 192.195908,277.754059 193.377014,279.853394 
	C193.523376,280.113525 193.464645,280.489044 193.512115,280.910278 
	C192.241074,282.064117 189.932663,281.683411 189.180145,283.769226 
	C187.320129,288.924652 185.527664,294.131439 185.491989,299.649872 
	C185.475128,302.259613 186.110168,305.067871 188.715134,306.598480 
	C190.596481,307.703949 190.376007,309.342346 190.114456,310.971161 
	C189.719635,313.430054 189.084061,315.849884 188.675323,318.307037 
	C187.822083,323.436310 187.784103,328.594086 188.892609,333.674927 
	C189.548157,336.679657 191.396225,338.796173 194.767120,338.792419 
	C198.020096,338.788757 199.475449,336.639130 200.055466,333.786835 
	C200.783005,330.209167 202.031296,326.559265 201.790436,323.026733 
	C201.635254,320.750519 202.191666,319.988068 203.666534,318.741241 
	C209.231354,314.036896 210.098068,308.797852 205.804031,302.953156 
	C202.695465,298.722015 201.738525,294.349182 202.769302,288.547424 
M177.974976,110.998764 
	C177.950745,108.359505 178.048767,105.711388 177.858398,103.084167 
	C177.735718,101.391129 176.344009,100.643433 174.824356,100.199913 
	C173.056580,99.683960 172.592987,100.907654 171.951675,102.149467 
	C168.849457,108.156548 165.641205,114.108879 162.538651,120.115791 
	C161.309998,122.494614 161.077423,125.345932 163.055511,127.036430 
	C165.067337,128.755768 167.923996,128.658646 170.467209,127.192421 
	C172.693512,125.908905 174.394592,124.186638 175.486435,121.861206 
	C176.980057,118.679985 177.972763,115.375397 177.974976,110.998764 
M111.360229,224.681793 
	C114.437675,221.095184 114.651131,216.961243 112.348518,213.214493 
	C109.219078,208.122375 104.273582,211.169601 100.100540,211.506943 
	C97.814186,211.691772 95.013275,212.235214 95.409210,215.593658 
	C96.691330,217.234253 98.520447,215.943329 99.722038,216.952667 
	C100.270897,222.360291 104.550613,225.506607 111.360229,224.681793 
M128.031128,214.864471 
	C128.505203,218.384659 128.397232,222.161682 132.117920,224.457108 
	C135.139771,223.152832 136.603897,220.401062 138.604477,218.281647 
	C140.816849,215.937836 140.385513,213.047913 138.300308,211.169708 
	C136.237137,209.311386 135.357681,204.921661 131.032700,206.724396 
	C127.653160,208.133026 126.976189,210.798019 128.031128,214.864471 
M102.439766,195.176712 
	C106.316284,193.291443 110.694283,191.905289 109.932304,186.090073 
	C109.504318,182.823807 108.608971,181.877869 105.061272,183.202011 
	C101.493645,184.533554 98.293617,186.153046 95.259453,188.403870 
	C92.324036,190.581451 93.093987,192.566711 95.165154,194.555023 
	C97.056679,196.370865 99.380447,196.260498 102.439766,195.176712 
M177.934402,86.124596 
	C178.041534,83.237846 178.200607,80.234680 174.588303,79.270126 
	C171.665436,78.489670 169.405396,79.573608 167.960999,82.294548 
	C164.116364,89.536934 172.629471,88.127007 174.151138,91.774605 
	C176.005951,90.306778 177.605377,89.120193 177.934402,86.124596 
M192.027893,258.315033 
	C190.563461,255.429382 188.367126,256.146454 186.245865,257.274139 
	C185.231262,257.813507 185.020569,259.016846 185.919144,259.783844 
	C187.850113,261.432068 189.625870,260.203552 191.345047,259.166595 
	C191.484848,259.082275 191.596680,258.951569 192.027893,258.315033 
z"/>
<path fill="#000000" opacity="1.000000" stroke="none" 
	d="
M275.791046,261.684265 
	C274.662476,266.047821 276.515503,267.658813 280.332367,267.651764 
	C282.664001,267.647461 284.998596,267.602814 287.326508,267.701904 
	C289.683228,267.802246 291.762604,268.700378 291.976929,271.305664 
	C292.209320,274.130127 290.247009,275.643494 287.703400,275.896393 
	C284.401123,276.224701 281.055664,276.169037 277.728363,276.184845 
	C271.732697,276.213348 265.735870,276.227142 259.741180,276.136292 
	C256.844818,276.092377 254.156830,275.096832 254.126419,271.758759 
	C254.097931,268.634186 256.666992,267.597931 259.375214,267.678284 
	C263.435303,267.798859 265.336731,265.555267 266.609467,262.098053 
	C275.636475,237.577209 284.740204,213.084625 293.765198,188.563049 
	C295.303772,184.382568 293.585144,181.771759 289.002441,181.513824 
	C284.518616,181.261444 280.011749,181.421646 275.515045,181.392609 
	C272.901855,181.375748 270.800842,180.577896 270.753296,177.533463 
	C270.704926,174.434616 272.829865,173.662109 275.439362,173.660950 
	C286.765381,173.655853 298.092926,173.771667 309.416565,173.609665 
	C312.972687,173.558807 313.880768,175.811447 314.839142,178.366669 
	C322.962952,200.027130 331.092102,221.685577 339.218353,243.345123 
	C341.673676,249.889481 344.225128,256.400238 346.535583,262.995422 
	C347.670624,266.235474 349.395752,268.000519 353.071747,267.735565 
	C355.914734,267.530670 358.788940,268.352783 358.717316,271.843689 
	C358.647430,275.249634 355.689392,276.010956 352.924194,276.048279 
	C344.264984,276.165039 335.602753,276.147766 326.942810,276.063263 
	C324.107544,276.035614 321.287415,275.172211 321.237701,271.782410 
	C321.185516,268.221008 324.109650,267.773468 326.926727,267.695404 
	C328.757599,267.644623 330.591156,267.701965 332.422821,267.670013 
	C337.995605,267.572815 338.855408,266.350800 336.921844,260.950409 
	C335.182770,256.093201 333.228546,251.312958 331.495514,246.453720 
	C330.405609,243.397690 328.541992,242.006622 325.166168,242.046768 
	C313.008881,242.191483 300.848663,242.184219 288.690430,242.103134 
	C284.584229,242.075745 282.179840,243.946976 280.876740,247.717621 
	C279.300598,252.278351 277.576447,256.787933 275.791046,261.684265 
M292.125458,217.540283 
	C291.060455,220.340805 289.947021,223.124054 288.940796,225.945511 
	C286.991669,231.410873 288.323242,233.508942 294.080322,233.597458 
	C302.572021,233.728012 311.067047,233.661240 319.560547,233.635101 
	C321.379517,233.629517 323.233978,233.564682 324.742462,232.193207 
	C325.377747,229.389114 324.053528,226.966873 323.139496,224.518570 
	C318.716400,212.671051 314.214111,200.853043 309.723297,189.030869 
	C309.034485,187.217606 308.823395,184.656952 306.385834,184.574158 
	C303.684540,184.482407 303.163177,187.173508 302.439240,189.115509 
	C299.009247,198.316238 295.705414,207.563995 292.125458,217.540283 
z"/>
<path fill="#000000" opacity="1.000000" stroke="none" 
	d="
M602.354126,255.970047 
	C602.356445,257.629425 602.358459,258.795288 602.359802,259.961151 
	C602.368103,267.160248 602.367004,267.176208 609.762695,267.695587 
	C612.419067,267.882080 614.986084,268.387787 615.173950,271.618866 
	C615.370483,274.999847 612.601685,275.818146 610.098572,275.877655 
	C602.111389,276.067444 594.115479,276.022888 586.125854,275.891754 
	C583.626892,275.850769 581.368286,274.713104 581.358093,271.803894 
	C581.346497,268.502930 583.915710,267.936462 586.563965,267.710266 
	C593.920044,267.082062 593.921204,267.078186 593.924316,259.805573 
	C593.935425,233.657013 593.960022,207.508438 593.946106,181.359894 
	C593.942444,174.448624 593.887390,174.451981 587.131592,174.349762 
	C585.966919,174.332138 584.787659,174.377075 583.641846,174.209991 
	C581.450012,173.890350 579.812500,172.795883 579.861389,170.357498 
	C579.910706,167.900650 581.610901,166.783844 583.819275,166.732208 
	C588.978760,166.611618 594.142761,166.676056 599.304932,166.676849 
	C602.613647,166.677353 602.332947,169.113846 602.336914,171.268433 
	C602.356567,181.927689 602.317932,192.587082 602.364502,203.246155 
	C602.372192,205.012909 601.879211,206.867310 602.864197,208.610306 
	C604.786316,208.567017 605.822510,207.115311 606.995544,206.063446 
	C616.075012,197.921722 626.665222,196.062454 638.222168,198.635071 
	C650.206909,201.302902 658.247864,211.473068 658.316589,223.888290 
	C658.388550,236.878937 658.450195,249.871765 658.272461,262.860321 
	C658.221497,266.587036 659.462585,267.913666 663.163086,267.746613 
	C666.359436,267.602325 670.871399,266.935089 670.986511,271.593475 
	C671.110168,276.595825 666.402527,275.949829 663.054504,276.031342 
	C656.729614,276.185364 650.397095,276.102997 644.069153,276.018494 
	C641.015137,275.977692 637.383179,275.832031 637.269653,271.858093 
	C637.150452,267.687531 640.874329,267.459045 643.860352,267.765381 
	C648.911987,268.283661 650.021973,266.035248 649.919861,261.428192 
	C649.654114,249.442307 649.404907,237.428177 649.930969,225.459702 
	C650.587646,210.521103 638.099670,204.688919 626.923035,205.573761 
	C615.890808,206.447189 609.490723,214.466461 603.029053,222.137634 
	C601.900208,223.477783 602.371582,225.350113 602.367493,226.996414 
	C602.343811,236.489731 602.354492,245.983154 602.354126,255.970047 
z"/>
<path fill="#000000" opacity="1.000000" stroke="none" 
	d="
M921.041504,203.900589 
	C942.272400,192.075836 966.973206,197.195801 978.995850,215.656036 
	C982.622498,221.224594 984.436462,227.429520 985.175964,233.940369 
	C985.831604,239.712814 985.209839,240.316147 979.468445,240.322464 
	C958.970032,240.345016 938.471497,240.316544 917.973206,240.358536 
	C916.038452,240.362503 913.967712,239.814102 912.212341,241.139023 
	C912.085938,253.751312 923.905457,266.741608 938.092773,269.600708 
	C951.698425,272.342529 964.153137,269.035431 975.935425,262.302673 
	C976.800903,261.808105 977.584045,261.171539 978.424011,260.629700 
	C980.605713,259.222137 982.865906,258.665497 984.556824,261.163055 
	C986.139648,263.500946 985.177002,265.660614 983.258118,267.367523 
	C979.322998,270.867950 974.587585,272.959259 969.676758,274.612061 
	C955.722107,279.308624 941.626343,280.836884 927.762512,274.640320 
	C899.128235,261.842072 892.680908,222.439392 921.041504,203.900589 
M951.921204,206.465317 
	C930.982361,203.710297 911.864319,215.804825 912.579163,231.749756 
	C933.733765,231.749756 954.906921,231.749756 976.611938,231.749756 
	C973.525513,218.309082 965.358765,210.380966 951.921204,206.465317 
z"/>
<path fill="#000000" opacity="1.000000" stroke="none" 
	d="
M853.777832,236.829773 
	C857.770508,227.471542 861.635559,218.471573 865.587097,209.270081 
	C862.376343,207.234955 859.148560,208.300644 856.139526,207.951187 
	C853.264526,207.617355 849.897095,207.408310 849.989624,203.631271 
	C850.082336,199.846863 853.422485,199.699142 856.335510,199.688690 
	C864.659180,199.658813 872.983032,199.662170 881.306702,199.690628 
	C884.079529,199.700104 886.998474,199.939102 887.182190,203.552475 
	C887.370667,207.259079 884.239807,208.070663 881.664368,207.786789 
	C875.916687,207.153214 873.963867,210.392654 872.037415,214.974411 
	C864.235229,233.530533 855.943298,251.881287 848.194092,270.458832 
	C846.196838,275.247070 843.169617,276.118896 838.550293,276.200104 
	C833.884766,276.282166 831.809265,274.292908 830.090088,270.259064 
	C821.935974,251.126892 813.437805,232.141525 805.241150,213.027161 
	C803.740540,209.527756 801.842773,207.484009 797.847473,207.858261 
	C796.716797,207.964172 795.535583,207.640060 794.389160,207.444489 
	C792.165527,207.065140 790.626953,205.924026 790.785522,203.472427 
	C790.939941,201.085114 792.560669,199.897552 794.775452,199.798111 
	C798.430908,199.633987 802.096863,199.681137 805.758362,199.676926 
	C811.418396,199.670441 817.079346,199.640396 822.738098,199.731461 
	C825.466248,199.775375 827.909668,200.781738 827.930969,203.904831 
	C827.951477,206.910126 825.338379,207.343750 822.979126,207.795074 
	C819.733154,208.416016 816.323303,207.225494 812.205811,209.021317 
	C820.858826,228.689392 829.469910,248.262070 838.080933,267.834747 
	C838.710205,267.807953 839.339417,267.781189 839.968628,267.754425 
	C845.337097,257.953888 848.872192,247.272324 853.777832,236.829773 
z"/>
<path fill="#000000" opacity="1.000000" stroke="none" 
	d="
M387.901001,267.678619 
	C389.874878,267.671844 391.376007,267.622009 392.874115,267.668762 
	C395.352509,267.746124 396.576111,266.639618 396.572235,264.109436 
	C396.545929,246.945526 396.545807,229.781586 396.532959,212.617661 
	C396.530426,209.225235 394.721375,207.965195 391.452667,208.002060 
	C388.301056,208.037598 385.132141,207.861420 381.996429,207.533554 
	C379.764191,207.300125 378.255890,205.891647 378.348083,203.529007 
	C378.440643,201.157104 380.109497,199.859238 382.310852,199.811493 
	C388.805695,199.670700 395.305237,199.716660 401.802765,199.741776 
	C404.591736,199.752548 404.808899,201.814407 404.962128,203.907440 
	C405.240265,207.707199 404.451477,211.555359 405.475159,215.740860 
	C409.306519,214.012100 411.788879,210.835007 414.856567,208.494751 
	C420.443695,204.232529 425.994507,200.040451 433.006958,198.306305 
	C441.086700,196.308243 449.860992,199.336456 454.826935,205.984970 
	C456.489594,208.210999 457.269653,210.613571 454.913910,212.658646 
	C452.472809,214.777863 450.390778,213.333984 448.421814,211.409485 
	C441.283722,204.432602 438.090942,203.861374 429.458618,208.565796 
	C420.595886,213.395798 413.504456,220.536789 406.070770,227.208267 
	C404.816986,228.333481 404.788330,229.778976 404.801422,231.330048 
	C404.888580,241.660828 405.046051,251.993988 404.897278,262.322327 
	C404.837891,266.445099 406.322906,267.874481 410.444550,267.747559 
	C418.602386,267.496307 426.773621,267.648651 434.939026,267.691620 
	C437.982422,267.707642 441.556030,267.642029 441.562286,271.850616 
	C441.567963,275.653412 438.169250,276.025055 435.313843,276.037018 
	C416.983490,276.113770 398.652527,276.103851 380.322083,276.033966 
	C377.390198,276.022797 374.101288,275.395477 374.135590,271.721558 
	C374.170685,267.964020 377.475464,267.726532 380.427979,267.693848 
	C382.760712,267.668060 385.093903,267.682434 387.901001,267.678619 
z"/>
<path fill="#000000" opacity="1.000000" stroke="none" 
	d="
M552.505859,269.618439 
	C538.650085,278.315277 523.926453,280.797424 508.570496,276.873749 
	C489.311188,271.952698 478.199799,253.574814 480.807007,232.357178 
	C483.147278,213.311859 499.353973,198.323990 518.296387,197.687241 
	C529.609253,197.306961 529.938232,197.390961 548.657471,205.440323 
	C549.796326,204.676926 549.389832,203.300125 549.902100,202.287323 
	C550.730286,200.649811 552.017883,199.664841 553.889282,199.894806 
	C555.753418,200.123871 557.102356,201.361282 557.141846,203.165131 
	C557.287781,209.823563 557.287720,216.488312 557.168823,223.147568 
	C557.132141,225.202530 555.702087,226.609100 553.641052,226.719910 
	C551.568970,226.831329 550.445496,225.447418 549.694580,223.539459 
	C544.391846,210.065414 532.369019,203.419586 517.436462,205.625595 
	C501.533112,207.975006 490.833099,218.311508 489.273285,232.831848 
	C486.435181,259.252319 505.528320,275.446564 532.208191,269.289429 
	C540.169678,267.452087 547.193176,263.866638 553.358093,258.514923 
	C555.472900,256.679077 557.862793,254.105576 560.598267,257.159851 
	C563.317017,260.195587 560.948853,262.794373 558.764648,264.890015 
	C556.977661,266.604523 554.809326,267.921539 552.505859,269.618439 
z"/>
<path fill="#000000" opacity="1.000000" stroke="none" 
	d="
M702.800354,203.034851 
	C704.015076,199.646301 706.579224,199.678818 709.116577,199.676697 
	C716.606018,199.670456 724.101501,199.853302 731.582520,199.601837 
	C735.787659,199.460464 737.078491,201.129898 737.052795,205.151505 
	C736.934692,223.624619 737.011902,242.099014 737.034790,260.572937 
	C737.043579,267.665619 737.062683,267.667572 744.214478,267.676453 
	C750.871704,267.684723 757.529358,267.650726 764.186035,267.711365 
	C766.988708,267.736877 769.916077,268.264923 770.008728,271.735809 
	C770.103394,275.285675 767.029785,275.963531 764.338684,275.971924 
	C743.203674,276.037842 722.067993,276.004059 700.933167,275.885406 
	C698.201111,275.870087 695.168945,275.094604 695.336426,271.575562 
	C695.501465,268.108673 698.508423,267.723206 701.288330,267.705994 
	C708.777527,267.659546 716.270264,267.551178 723.755188,267.732941 
	C727.414856,267.821838 728.739807,266.522308 728.708801,262.813477 
	C728.569702,246.171432 728.562622,229.526840 728.710754,212.884979 
	C728.743958,209.155441 727.379333,207.830322 723.764221,207.941025 
	C718.777161,208.093781 713.774170,208.074265 708.790466,207.850586 
	C705.988831,207.724808 702.890198,207.477997 702.800354,203.034851 
z"/>
<path fill="#000000" opacity="1.000000" stroke="none" 
	d="
M736.240540,165.240921 
	C736.305420,169.879913 736.153503,174.051743 736.363586,178.205261 
	C736.589966,182.681244 733.643616,182.340210 730.740723,182.311935 
	C727.731262,182.282623 724.439148,182.817947 724.692261,178.039978 
	C724.850647,175.050674 724.569275,172.037231 724.746460,169.050110 
	C724.873718,166.904190 723.610596,163.601486 726.710327,163.114090 
	C729.808960,162.626877 733.616943,161.033508 736.240540,165.240921 
z"/>
</svg>