<svg version="1.1" id="Layer_1" xmlns="http://www.w3.org/2000/svg" xmlns:xlink="http://www.w3.org/1999/xlink" x="0px" y="0px"
	 width="100%" viewBox="0 0 730 138" enable-background="new 0 0 730 138" xml:space="preserve">
<path fill="none" opacity="1.000000" stroke="#000000" stroke-linecap="round" stroke-linejoin="round" stroke-width="4.000000"
	d="
M56.500000,45.000000 
	C52.395267,43.395176 49.380810,39.901211 44.521984,39.317116 
	C39.457478,38.708298 34.683254,39.044601 30.583111,41.631718 
	C26.508858,44.202499 23.512445,48.244583 24.073433,53.492149 
	C24.727343,59.608910 28.871693,62.954018 34.510204,64.461845 
	C38.959446,65.651649 43.513332,66.444023 47.997116,67.512108 
	C56.332825,69.497765 60.544388,73.892281 59.943531,80.494858 
	C59.301167,87.553566 54.947941,92.631599 46.497948,94.490677 
	C37.692471,96.427956 30.066427,93.750069 23.567593,87.924599 
	C21.212379,85.813416 22.091406,82.405441 22.000000,79.500000 
"/>
<path fill="none" opacity="1.000000" stroke="#000000" stroke-linecap="round" stroke-linejoin="round" stroke-width="4.000000"
	d="
M299.000000,59.500000 
	C294.229584,57.500793 290.000671,54.261730 284.502594,53.953640 
	C273.425629,53.332920 264.219238,58.761086 261.983215,69.996658 
	C259.946869,80.228836 263.696198,90.151970 275.006134,93.981850 
	C284.972839,97.356857 298.733459,92.627296 303.000000,84.500000 
"/>
<path fill="none" opacity="1.000000" stroke="#000000" stroke-linecap="round" stroke-linejoin="round" stroke-width="4.000000"
	d="
M541.000000,88.500000 
	C530.498047,96.216522 518.661072,96.941788 508.949982,91.082909 
	C503.598328,87.854156 501.238220,82.913292 499.594910,77.471336 
	C498.752625,74.681992 499.554749,72.774132 503.503235,72.888977 
	C514.493958,73.208656 525.500061,73.016769 536.500000,72.991890 
	C541.011108,72.981689 541.957214,71.932945 540.457275,68.016357 
	C537.495789,60.283249 531.078308,53.927345 519.999878,53.974163 
	C512.504944,54.005833 503.392517,58.344166 499.836761,67.939507 
	C499.136505,69.829086 501.918640,72.462662 498.500000,73.500000 
"/>
<path fill="none" opacity="1.000000" stroke="#000000" stroke-linecap="round" stroke-linejoin="round" stroke-width="4.000000"
	d="
M443.000000,56.000000 
	C446.267029,66.214539 451.166229,75.737305 455.491547,85.503738 
	C456.217957,87.143959 456.888306,88.813942 457.484802,90.505363 
	C458.104614,92.262955 458.511749,94.040543 461.000122,94.032166 
	C463.471527,94.023834 463.691467,92.295715 464.596954,90.550293 
	C468.634491,82.767342 471.422577,74.466530 474.946136,66.476250 
	C476.452026,63.061321 478.556763,59.839081 479.000000,56.000000 
"/>
<path fill="none" opacity="1.000000" stroke="#000000" stroke-linecap="round" stroke-linejoin="round" stroke-width="4.000000"
	d="
M210.500000,39.500000 
	C210.500000,53.666668 210.821823,67.843292 210.383896,81.996407 
	C210.104156,91.036072 215.387512,94.593567 223.001633,94.966652 
	C229.086823,95.264816 234.909637,93.747658 240.454666,91.393234 
	C241.487717,90.954597 242.366592,90.433090 243.500000,90.500000 
"/>
<path fill="none" opacity="1.000000" stroke="#000000" stroke-linecap="round" stroke-linejoin="round" stroke-width="5.000000"
	d="
M117.000000,93.250000 
	C117.000000,85.333336 116.782936,77.408867 117.066956,69.502403 
	C117.305023,62.874931 115.284630,57.614964 108.967117,55.082016 
	C102.915154,52.655540 97.125488,53.930340 91.999596,57.999485 
	C90.403503,59.266529 89.459450,61.465885 87.000000,61.500000 
"/>
<path fill="none" opacity="1.000000" stroke="#000000" stroke-linecap="round" stroke-linejoin="round" stroke-width="5.000000"
	d="
M357.000000,93.250000 
	C357.000000,85.333336 356.782898,77.408867 357.066925,69.502403 
	C357.305023,62.874931 355.284607,57.614971 348.967102,55.082020 
	C342.915161,52.655548 337.125488,53.930336 331.999603,57.999485 
	C330.403503,59.266529 329.459442,61.465885 327.000000,61.500000 
"/>
<path fill="none" opacity="1.000000" stroke="#000000" stroke-linecap="round" stroke-linejoin="round" stroke-width="5.000000"
	d="
M401.000000,93.250000 
	C401.000000,81.000000 401.004181,68.749992 400.977356,56.500050 
	C400.976654,56.173717 400.639893,55.848129 400.171326,55.000000 
	C396.011993,55.000000 391.506012,55.000000 387.000000,55.000000 
"/>
<path fill="none" opacity="1.000000" stroke="#000000" stroke-linecap="round" stroke-linejoin="round" stroke-width="5.000000"
	d="
M161.000000,93.250000 
	C161.000000,81.000000 161.004166,68.749992 160.977356,56.500050 
	C160.976654,56.173725 160.639862,55.848141 160.171280,55.000000 
	C156.012009,55.000000 151.505997,55.000000 147.000000,55.000000 
"/>
<path fill="none" opacity="1.000000" stroke="#000000" stroke-linecap="round" stroke-linejoin="round" stroke-width="3.000000"
	d="
M616.000000,85.000000 
	C622.683350,85.000000 629.366638,85.000000 636.348572,85.000000 
	C635.008728,79.260246 632.216736,75.901955 627.480957,75.114677 
	C623.373352,74.431816 619.523621,75.493996 616.970947,79.481407 
	C612.195129,86.941574 617.345764,95.129715 625.006592,95.937752 
	C628.924377,96.350983 632.809753,95.746819 636.000000,93.000000 
"/>
<path fill="none" opacity="1.000000" stroke="#000000" stroke-linecap="round" stroke-linejoin="round" stroke-width="3.000000"
	d="
M588.000000,91.499985 
	C589.000000,92.166649 590.075684,92.743805 590.987610,93.514641 
	C596.627991,98.282310 602.483826,95.651588 605.500916,91.000580 
	C608.571533,86.267021 606.901794,79.099968 602.000000,76.000008 
	C598.011169,73.477417 589.631958,75.744293 587.664551,80.567123 
	C586.370056,83.740181 586.408325,87.567856 588.000000,91.000000 
"/>
<path fill="none" opacity="1.000000" stroke="#000000" stroke-linecap="round" stroke-linejoin="round" stroke-width="3.000000"
	d="
M692.000000,85.000000 
	C688.166687,83.990356 684.430542,83.439789 680.469849,84.919212 
	C677.187866,86.145073 675.365784,87.720497 675.956177,91.506828 
	C676.577393,95.490883 679.484253,95.793823 682.501160,95.980995 
	C686.146484,96.207161 688.871033,93.768967 692.000000,92.500000 
"/>
<path fill="none" opacity="1.000000" stroke="#000000" stroke-linecap="round" stroke-linejoin="round" stroke-width="3.000000"
	d="
M573.000000,66.000000 
	C565.517578,77.666664 565.517578,89.333336 573.000000,101.000000 
"/>
<path fill="none" opacity="1.000000" stroke="#000000" stroke-linecap="round" stroke-linejoin="round" stroke-width="4.000000"
	d="
M325.500000,93.000000 
	C325.820465,83.502701 325.294128,74.009743 325.874939,64.492371 
	C326.447754,55.106304 326.000000,45.657963 326.000000,36.000000 
	C321.835297,36.000000 318.667664,36.000000 315.500000,36.000000 
"/>
<path fill="none" opacity="1.000000" stroke="#000000" stroke-linecap="round" stroke-linejoin="round" stroke-width="4.000000"
	d="
M85.500000,93.000000 
	C85.820473,83.502701 85.294113,74.009743 85.874939,64.492371 
	C86.447754,55.106304 86.000000,45.657963 86.000000,36.000000 
	C81.835312,36.000000 78.667656,36.000000 75.500000,36.000000 
"/>
<path fill="none" opacity="1.000000" stroke="#000000" stroke-linecap="round" stroke-linejoin="round" stroke-width="3.000000"
	d="
M651.000000,66.500000 
	C651.000000,73.833336 650.996826,81.166664 651.000977,88.500000 
	C651.004456,94.610611 653.381653,96.799706 659.492004,95.942772 
	C661.708557,95.631920 663.833313,94.666656 666.000000,93.999992 
"/>
<path fill="none" opacity="1.000000" stroke="#000000" stroke-linecap="round" stroke-linejoin="round" stroke-width="5.000000"
	d="
M235.000000,55.000000 
	C222.833328,55.000000 210.666672,55.000000 198.500000,55.000000 
"/>
<path fill="none" opacity="1.000000" stroke="#000000" stroke-linecap="round" stroke-linejoin="round" stroke-width="3.000000"
	d="
M697.500000,95.000000 
	C693.725647,95.380241 691.772644,94.518326 692.872681,89.969215 
	C693.558044,87.134949 693.076416,83.997551 692.980408,81.000626 
	C692.863647,77.356010 690.464539,75.185921 686.499756,75.004837 
	C683.484070,74.867104 680.705994,75.792168 678.000000,77.000000 
"/>
<path fill="none" opacity="1.000000" stroke="#000000" stroke-linecap="round" stroke-linejoin="round" stroke-width="5.000000"
	d="
M421.500000,94.000000 
	C407.833344,94.000000 394.166656,94.000000 380.500000,94.000000 
"/>
<path fill="none" opacity="1.000000" stroke="#000000" stroke-linecap="round" stroke-linejoin="round" stroke-width="5.000000"
	d="
M181.500000,94.000000 
	C167.833328,94.000000 154.166672,94.000000 140.500000,94.000000 
"/>
<path fill="none" opacity="1.000000" stroke="#000000" stroke-linecap="round" stroke-linejoin="round" stroke-width="3.000000"
	d="
M709.500000,65.500000 
	C711.587036,69.844299 713.583862,74.186401 714.546509,78.990685 
	C716.211731,87.301964 712.891479,94.383286 709.500000,101.500000 
"/>
<path fill="none" opacity="1.000000" stroke="#000000" stroke-linecap="round" stroke-linejoin="round" stroke-width="3.000000"
	d="
M588.000000,79.500000 
	C585.673462,75.377426 587.886414,70.731056 586.792603,66.685982 
	C585.272400,65.487556 583.823364,66.246231 582.500000,66.000000 
"/>
<path fill="none" opacity="1.000000" stroke="#000000" stroke-linecap="round" stroke-linejoin="round" stroke-width="3.000000"
	d="
M663.500000,75.000000 
	C657.500000,75.000000 651.500000,75.000000 645.500000,75.000000 
"/>
<path fill="none" opacity="1.000000" stroke="#000000" stroke-linecap="round" stroke-linejoin="round" stroke-width="5.000000"
	d="
M453.500000,55.000000 
	C447.166656,55.000000 440.833344,55.000000 434.500000,55.000000 
"/>
<path fill="none" opacity="1.000000" stroke="#000000" stroke-linecap="round" stroke-linejoin="round" stroke-width="5.000000"
	d="
M334.500000,94.000000 
	C328.500000,94.000000 322.500000,94.000000 316.500000,94.000000 
"/>
<path fill="none" opacity="1.000000" stroke="#000000" stroke-linecap="round" stroke-linejoin="round" stroke-width="5.000000"
	d="
M94.500000,94.000000 
	C88.500000,94.000000 82.500000,94.000000 76.500000,94.000000 
"/>
<path fill="none" opacity="1.000000" stroke="#000000" stroke-linecap="round" stroke-linejoin="round" stroke-width="5.000000"
	d="
M58.000000,38.500000 
	C56.915009,43.833332 57.673248,49.166668 58.000000,54.500000 
"/>
<path fill="none" opacity="1.000000" stroke="#000000" stroke-linecap="round" stroke-linejoin="round" stroke-width="5.000000"
	d="
M487.500000,55.000000 
	C481.666656,55.000000 475.833344,55.000000 470.000000,55.000000 
"/>
<path fill="none" opacity="1.000000" stroke="#000000" stroke-linecap="round" stroke-linejoin="round" stroke-width="5.000000"
	d="
M348.500000,94.000000 
	C354.166656,94.000000 359.833344,94.000000 365.500000,94.000000 
"/>
<path fill="none" opacity="1.000000" stroke="#000000" stroke-linecap="round" stroke-linejoin="round" stroke-width="5.000000"
	d="
M108.500000,94.000000 
	C114.166664,94.000000 119.833336,94.000000 125.500000,94.000000 
"/>
<path fill="none" opacity="1.000000" stroke="#000000" stroke-linecap="round" stroke-linejoin="round" stroke-width="3.000000"
	d="
M587.500000,92.000000 
	C587.395752,95.604057 584.758423,94.986221 582.500000,95.000000 
"/>
<path fill="none" opacity="1.000000" stroke="#000000" stroke-linecap="round" stroke-linejoin="round" stroke-width="5.000000"
	d="
M300.000000,53.500000 
	C300.000000,57.833332 300.000000,62.166668 300.000000,66.500000 
"/>
</svg>